<?xml version="1.0" encoding="UTF-8" standalone="no"?>
<svg
  width="2048"
  height="2048"
  viewBox="0 0 2048 2048"
  version="1.1"
  xmlns="http://www.w3.org/2000/svg">
  <!-- Composed from apps/browser/assets/icons/release/icon.icon/icon.json and Assets/logo.svg. -->
  <defs>
    <clipPath id="app-icon-clip">
      <rect width="2048" height="2048" rx="460" ry="460"/>
    </clipPath>
  </defs>
  <g clip-path="url(#app-icon-clip)">
    <rect width="2048" height="2048" fill="#f2f2f1"/>
    <g transform="translate(380 380) scale(12.4)">
      <path
        fill="#2559fe"
        d="M50 0C77.6142 0 100 22.3858 100 50V90C100 95.5228 95.5228 100 90 100H50C22.3858 100 0 77.6142 0 50C0 22.3858 22.3858 0 50 0ZM50.1367 12C29.15 12.0002 12.1367 29.0133 12.1367 50C12.1367 70.9867 29.15 87.9998 50.1367 88C71.1235 88 88.1367 70.9868 88.1367 50C88.1367 29.0132 71.1235 12 50.1367 12Z"/>
      <circle cx="50" cy="50" r="28" fill="#2559fe"/>
    </g>
  </g>
</svg>
