<?xml version="1.0" encoding="UTF-8" standalone="no"?>
<svg
  width="2048"
  height="2048"
  viewBox="0 0 2048 2048"
  version="1.1"
  xmlns="http://www.w3.org/2000/svg">
  <!-- Composed from apps/browser/assets/icons/nightly/icon.icon/icon.json and its Assets folder. -->
  <defs>
    <clipPath id="app-icon-clip">
      <rect width="2048" height="2048" rx="460" ry="460"/>
    </clipPath>
  </defs>
  <g clip-path="url(#app-icon-clip)">
    <rect width="2048" height="2048" fill="#1e1e1d"/>
    <g fill="#3269ff">
    <path opacity="0.6" d="m 1888.6832,1313.4315 -32.3006,-12.7797 -12.7801,-32.302 c -1.0549,-2.6816 -3.6409,-4.4246 -6.5069,-4.4246 -2.8651,0 -5.4517,1.7641 -6.5067,4.4246 l -12.7804,32.302 -32.3006,12.7797 c -2.671,1.0585 -4.4249,3.6412 -4.4249,6.5063 0,2.8579 1.7536,5.4513 4.4249,6.5063 l 32.3006,12.7796 12.7804,32.3021 c 1.055,2.6816 3.6409,4.4245 6.5067,4.4245 2.865,0 5.452,-1.7641 6.5069,-4.4245 l 12.7709,-32.3021 32.3006,-12.7796 c 2.671,-1.0586 4.4249,-3.6413 4.4249,-6.5063 0,-2.858 -1.7535,-5.4513 -4.4249,-6.5063 z"/>
    <path opacity="0.6" d="m 1426.107,382.94954 -32.3006,-12.7797 -12.7801,-32.302 c -1.0549,-2.6816 -3.6409,-4.4246 -6.5069,-4.4246 -2.8651,0 -5.4517,1.7641 -6.5067,4.4246 l -12.7804,32.302 -32.3006,12.7797 c -2.671,1.0585 -4.4249,3.6412 -4.4249,6.5063 0,2.8579 1.7536,5.4513 4.4249,6.5063 l 32.3006,12.77956 12.7804,32.30211 c 1.055,2.6816 3.6409,4.4245 6.5067,4.4245 2.865,0 5.452,-1.7641 6.5069,-4.4245 l 12.7709,-32.30211 32.3006,-12.77956 c 2.671,-1.0586 4.4249,-3.6413 4.4249,-6.5063 0,-2.858 -1.7535,-5.4513 -4.4249,-6.5063 z"/>
    <path opacity="0.5" transform="matrix(0.45749571,0,0,0.45749571,54.977026,391.95985)" d="m 412.03976,822.23688 -32.3006,-12.7797 -12.7801,-32.302 c -1.0549,-2.6816 -3.6409,-4.4246 -6.5069,-4.4246 -2.8651,0 -5.4517,1.7641 -6.5067,4.4246 l -12.7804,32.302 -32.3006,12.7797 c -2.671,1.0585 -4.4249,3.6412 -4.4249,6.5063 0,2.8579 1.7536,5.4513 4.4249,6.5063 l 32.3006,12.77956 12.7804,32.3021 c 1.055,2.6816 3.6409,4.4245 6.5067,4.4245 2.865,0 5.452,-1.7641 6.5069,-4.4245 l 12.7709,-32.3021 32.3006,-12.77956 c 2.671,-1.0586 4.4249,-3.6413 4.4249,-6.5063 0,-2.858 -1.7535,-5.4513 -4.4249,-6.5063 z"/>
    <path opacity="0.3" transform="matrix(0.45749571,0,0,0.45749571,734.87841,-203.29789)" d="m 412.03976,822.23688 -32.3006,-12.7797 -12.7801,-32.302 c -1.0549,-2.6816 -3.6409,-4.4246 -6.5069,-4.4246 -2.8651,0 -5.4517,1.7641 -6.5067,4.4246 l -12.7804,32.302 -32.3006,12.7797 c -2.671,1.0585 -4.4249,3.6412 -4.4249,6.5063 0,2.8579 1.7536,5.4513 4.4249,6.5063 l 32.3006,12.77956 12.7804,32.3021 c 1.055,2.6816 3.6409,4.4245 6.5067,4.4245 2.865,0 5.452,-1.7641 6.5069,-4.4245 l 12.7709,-32.3021 32.3006,-12.77956 c 2.671,-1.0586 4.4249,-3.6413 4.4249,-6.5063 0,-2.858 -1.7535,-5.4513 -4.4249,-6.5063 z"/>
    <path opacity="0.3" transform="matrix(0.45749571,0,0,0.45749571,1623.9194,550.52629)" d="m 412.03976,822.23688 -32.3006,-12.7797 -12.7801,-32.302 c -1.0549,-2.6816 -3.6409,-4.4246 -6.5069,-4.4246 -2.8651,0 -5.4517,1.7641 -6.5067,4.4246 l -12.7804,32.302 -32.3006,12.7797 c -2.671,1.0585 -4.4249,3.6412 -4.4249,6.5063 0,2.8579 1.7536,5.4513 4.4249,6.5063 l 32.3006,12.77956 12.7804,32.3021 c 1.055,2.6816 3.6409,4.4245 6.5067,4.4245 2.865,0 5.452,-1.7641 6.5069,-4.4245 l 12.7709,-32.3021 32.3006,-12.77956 c 2.671,-1.0586 4.4249,-3.6413 4.4249,-6.5063 0,-2.858 -1.7535,-5.4513 -4.4249,-6.5063 z"/>
    <path opacity="0.3" transform="matrix(0.45749571,0,0,0.45749571,1573.8944,203.05754)" d="m 412.03976,822.23688 -32.3006,-12.7797 -12.7801,-32.302 c -1.0549,-2.6816 -3.6409,-4.4246 -6.5069,-4.4246 -2.8651,0 -5.4517,1.7641 -6.5067,4.4246 l -12.7804,32.302 -32.3006,12.7797 c -2.671,1.0585 -4.4249,3.6412 -4.4249,6.5063 0,2.8579 1.7536,5.4513 4.4249,6.5063 l 32.3006,12.77956 12.7804,32.3021 c 1.055,2.6816 3.6409,4.4245 6.5067,4.4245 2.865,0 5.452,-1.7641 6.5069,-4.4245 l 12.7709,-32.3021 32.3006,-12.77956 c 2.671,-1.0586 4.4249,-3.6413 4.4249,-6.5063 0,-2.858 -1.7535,-5.4513 -4.4249,-6.5063 z"/>
    <path opacity="0.3" transform="matrix(0.45749571,0,0,0.45749571,1502.7713,1242.6366)" d="m 412.03976,822.23688 -32.3006,-12.7797 -12.7801,-32.302 c -1.0549,-2.6816 -3.6409,-4.4246 -6.5069,-4.4246 -2.8651,0 -5.4517,1.7641 -6.5067,4.4246 l -12.7804,32.302 -32.3006,12.7797 c -2.671,1.0585 -4.4249,3.6412 -4.4249,6.5063 0,2.8579 1.7536,5.4513 4.4249,6.5063 l 32.3006,12.77956 12.7804,32.3021 c 1.055,2.6816 3.6409,4.4245 6.5067,4.4245 2.865,0 5.452,-1.7641 6.5069,-4.4245 l 12.7709,-32.3021 32.3006,-12.77956 c 2.671,-1.0586 4.4249,-3.6413 4.4249,-6.5063 0,-2.858 -1.7535,-5.4513 -4.4249,-6.5063 z"/>
    <path opacity="0.3" transform="matrix(0.45749571,0,0,0.45749571,995.95826,1281.216)" d="m 412.03976,822.23688 -32.3006,-12.7797 -12.7801,-32.302 c -1.0549,-2.6816 -3.6409,-4.4246 -6.5069,-4.4246 -2.8651,0 -5.4517,1.7641 -6.5067,4.4246 l -12.7804,32.302 -32.3006,12.7797 c -2.671,1.0585 -4.4249,3.6412 -4.4249,6.5063 0,2.8579 1.7536,5.4513 4.4249,6.5063 l 32.3006,12.77956 12.7804,32.3021 c 1.055,2.6816 3.6409,4.4245 6.5067,4.4245 2.865,0 5.452,-1.7641 6.5069,-4.4245 l 12.7709,-32.3021 32.3006,-12.77956 c 2.671,-1.0586 4.4249,-3.6413 4.4249,-6.5063 0,-2.858 -1.7535,-5.4513 -4.4249,-6.5063 z"/>
    <path opacity="0.3" transform="matrix(0.45749571,0,0,0.45749571,684.37056,1538.6076)" d="m 412.03976,822.23688 -32.3006,-12.7797 -12.7801,-32.302 c -1.0549,-2.6816 -3.6409,-4.4246 -6.5069,-4.4246 -2.8651,0 -5.4517,1.7641 -6.5067,4.4246 l -12.7804,32.302 -32.3006,12.7797 c -2.671,1.0585 -4.4249,3.6412 -4.4249,6.5063 0,2.8579 1.7536,5.4513 4.4249,6.5063 l 32.3006,12.77956 12.7804,32.3021 c 1.055,2.6816 3.6409,4.4245 6.5067,4.4245 2.865,0 5.452,-1.7641 6.5069,-4.4245 l 12.7709,-32.3021 32.3006,-12.77956 c 2.671,-1.0586 4.4249,-3.6413 4.4249,-6.5063 0,-2.858 -1.7535,-5.4513 -4.4249,-6.5063 z"/>
    <path opacity="0.3" transform="matrix(0.45749571,0,0,0.45749571,333.37908,112.02018)" d="m 412.03976,822.23688 -32.3006,-12.7797 -12.7801,-32.302 c -1.0549,-2.6816 -3.6409,-4.4246 -6.5069,-4.4246 -2.8651,0 -5.4517,1.7641 -6.5067,4.4246 l -12.7804,32.302 -32.3006,12.7797 c -2.671,1.0585 -4.4249,3.6412 -4.4249,6.5063 0,2.8579 1.7536,5.4513 4.4249,6.5063 l 32.3006,12.77956 12.7804,32.3021 c 1.055,2.6816 3.6409,4.4245 6.5067,4.4245 2.865,0 5.452,-1.7641 6.5069,-4.4245 l 12.7709,-32.3021 32.3006,-12.77956 c 2.671,-1.0586 4.4249,-3.6413 4.4249,-6.5063 0,-2.858 -1.7535,-5.4513 -4.4249,-6.5063 z"/>
    <path opacity="0.3" transform="matrix(0.45749571,0,0,0.45749571,35.308043,892.17986)" d="m 412.03976,822.23688 -32.3006,-12.7797 -12.7801,-32.302 c -1.0549,-2.6816 -3.6409,-4.4246 -6.5069,-4.4246 -2.8651,0 -5.4517,1.7641 -6.5067,4.4246 l -12.7804,32.302 -32.3006,12.7797 c -2.671,1.0585 -4.4249,3.6412 -4.4249,6.5063 0,2.8579 1.7536,5.4513 4.4249,6.5063 l 32.3006,12.77956 12.7804,32.3021 c 1.055,2.6816 3.6409,4.4245 6.5067,4.4245 2.865,0 5.452,-1.7641 6.5069,-4.4245 l 12.7709,-32.3021 32.3006,-12.77956 c 2.671,-1.0586 4.4249,-3.6413 4.4249,-6.5063 0,-2.858 -1.7535,-5.4513 -4.4249,-6.5063 z"/>
    <path opacity="0.6" d="m 462.62834,1534.2196 -32.30065,-12.7797 -12.78004,-32.302 c -1.05497,-2.6816 -3.6409,-4.4246 -6.50698,-4.4246 -2.86502,0 -5.45165,1.7641 -6.50663,4.4246 l -12.78039,32.302 -32.30064,12.7797 c -2.67097,1.0585 -4.42491,3.6412 -4.42491,6.5063 0,2.8579 1.75359,5.4513 4.42491,6.5063 l 32.30064,12.7796 12.78039,32.3021 c 1.05498,2.6816 3.6409,4.4245 6.50663,4.4245 2.86502,0 5.45201,-1.7641 6.50698,-4.4245 l 12.77087,-32.3021 32.30064,-12.7796 c 2.67096,-1.0586 4.4249,-3.6413 4.4249,-6.5063 0,-2.858 -1.75359,-5.4513 -4.4249,-6.5063 z"/>
    </g>
    <g transform="translate(380 380) scale(12.4)">
    <path
        fill="#3269ff"
      d="M50 0C77.6142 0 100 22.3858 100 50V90C100 95.5228 95.5228 100 90 100H50C22.3858 100 0 77.6142 0 50C0 22.3858 22.3858 0 50 0ZM50.1367 12C29.15 12.0002 12.1367 29.0133 12.1367 50C12.1367 70.9867 29.15 87.9998 50.1367 88C71.1235 88 88.1367 70.9868 88.1367 50C88.1367 29.0132 71.1235 12 50.1367 12Z"/>
      <circle cx="50" cy="50" r="28" fill="#3269ff"/>
    </g>
  </g>
</svg>
