<svg width="88" height="28" viewBox="0 0 88 28" fill="none" xmlns="http://www.w3.org/2000/svg">
  <path d="M79.0387 2.58921C77.9573 1.46766 76.2027 1.46766 75.1206 2.58921L63.5356 14.6026C62.4543 15.7242 62.4543 17.5435 63.5356 18.665C64.617 19.7866 66.3716 19.7866 67.4537 18.665L79.0387 6.65162C80.12 5.53007 80.12 3.71076 79.0387 2.58921Z" fill="currentColor"/>
  <path d="M86.1033 3.38804C85.0219 2.26649 83.2673 2.26649 82.186 3.38804L70.601 15.4014C69.5197 16.523 69.5197 18.3423 70.601 19.4638C71.6824 20.5854 73.437 20.5854 74.5191 19.4638L86.1041 7.45044C87.1854 6.3289 87.1854 4.50959 86.1041 3.38804H86.1033Z" fill="currentColor" opacity="0.65"/>
  <path d="M86.8727 10.7142C85.7913 9.59266 84.0367 9.59266 82.9546 10.7142L71.3696 22.7276C70.2883 23.8492 70.2883 25.6685 71.3696 26.79C72.451 27.9116 74.2055 27.9116 75.2877 26.79L86.8727 14.7766C87.954 13.6551 87.954 11.8358 86.8727 10.7142Z" fill="currentColor" opacity="0.35"/>
  <path d="M9.2793 23.1999H0L0 0.369141H9.13795C11.0786 0.369141 12.7086 0.89391 14.0871 1.94345C15.4647 2.99299 16.1675 4.48038 16.1675 6.40399C16.1675 8.53286 15.1269 10.1651 13.0752 11.2726V11.3314C15.8025 12.3809 17.1243 13.9842 17.1243 16.8994C17.1243 21.5362 13.1319 23.1982 9.2793 23.1982V23.1999ZM8.5206 4.7138H4.44439V9.64199H8.21153C10.5459 9.64199 11.6976 8.79607 11.6976 7.13403C11.6976 5.38507 10.3199 4.7138 8.5206 4.7138ZM9.08204 13.7243H4.44199V18.8271H9.2218C11.5275 18.8271 12.6807 17.9812 12.6807 16.2902C12.6807 14.5992 11.4715 13.7251 9.08204 13.7251V13.7243Z" fill="currentColor"/>
  <path d="M23.539 23.1999H19.125V0.369141H23.539V23.1999Z" fill="currentColor"/>
  <path d="M32.4803 10.2541C30.6634 10.2541 29.6132 11.4062 28.9791 12.5038L25.7031 10.562C26.9537 7.75188 29.2179 6.36133 32.4635 6.36133C35.4424 6.36133 37.8455 7.43404 38.8278 9.6879C39.1848 10.5222 39.3365 11.5494 39.3365 12.6925V23.1928H35.472V20.9382C34.4896 22.6366 32.9395 23.4709 30.7952 23.4709C29.2466 23.4709 27.9656 23.0083 26.9537 22.1118C25.9411 21.2171 25.4355 20.0434 25.4355 18.6222V18.4368C25.4355 14.6062 29.2474 13.4018 32.0482 13.4018H34.0144C34.9968 13.4018 35.5031 12.9392 35.5031 12.0113C35.5031 11.4079 34.6861 10.2507 32.4811 10.2507L32.4795 10.2532L32.4803 10.2541ZM35.1701 16.2856H32.4603C31.7152 16.2856 30.9621 16.3444 30.4693 16.7615C29.9726 17.182 29.7498 17.5719 29.7498 18.2829C29.7498 19.5633 31.1474 19.9788 31.8989 19.9788C34.3115 19.9788 35.1693 18.2075 35.1693 16.6365V16.2864L35.1701 16.2856Z" fill="currentColor"/>
  <path d="M64.7512 23.0973C64.7512 23.0973 63.2506 23.1693 62.4807 23.1693C58.3693 23.1693 56.3185 21.0727 56.3185 17.2379V10.949H53.4785V6.80795H56.3775V1.68359H60.9329V6.80713H64.8383V10.9482H60.9329V16.6544C60.9329 18.5259 61.2516 18.8255 63.0565 18.8255C63.4407 18.8255 64.7488 18.828 64.7488 18.828V23.0973L64.7512 23.0957V23.0973Z" fill="currentColor"/>
  <path d="M69.4122 23.5685C70.9416 23.5685 72.1819 22.2823 72.1819 20.6964C72.1819 19.1105 70.9416 17.8242 69.4122 17.8242C67.8829 17.8242 66.6426 19.1105 66.6426 20.6964C66.6426 22.2823 67.8829 23.5685 69.4122 23.5685Z" fill="currentColor"/>
  <path d="M47.7408 12.8807C46.3472 12.5728 45.666 12.0811 45.666 11.3734C45.666 10.7278 46.3129 10.1741 47.5899 10.1741C50.0241 10.1741 51.3866 11.0407 51.3866 11.0407V6.88971C50.0305 6.49158 48.7064 6.36328 47.4445 6.36328C45.785 6.36328 44.3618 6.85577 43.1455 7.83909C41.9595 8.79179 41.3661 10.0524 41.3661 11.5597C41.3661 14.2348 43.2333 16.0177 46.9989 16.8785C49.0154 17.3404 49.5194 17.8312 49.5194 18.4768C49.5194 19.1225 48.7487 19.6762 47.5923 19.6762C45.8728 19.6762 44.6868 18.9991 44.0344 17.6781L40.625 19.7689C41.8996 22.2909 44.2133 23.5499 47.5324 23.5499C51.4457 23.5499 53.8479 21.3987 53.8479 18.231C53.8479 15.3713 51.7428 13.7423 47.74 12.8807V12.879L47.7408 12.8807Z" fill="currentColor"/>
</svg>