<?xml version="1.0" encoding="UTF-8"?>
<svg xmlns="http://www.w3.org/2000/svg" viewBox="0 0 3217 901" width="140" height="39">
  <polygon fill="currentColor" points="809.08 422.77 909.08 422.77 909.08 100 1045 100 1045 11 675 11 675 100 809.08 100 809.08 422.77"/>
  <polygon fill="currentColor" points="2025.22 422.77 2125.22 422.77 2125.22 100 2261.14 100 2261.14 99.24 2261.14 11 1892.14 11 1891.14 11 1891.14 99.24 1891.14 100 2025.22 100 2025.22 422.77"/>
  <polygon fill="currentColor" points="1415.02 337.47 1204.2 337.47 1204.2 253.94 1401.52 253.94 1401.52 172.77 1204.2 172.77 1204.2 96.3 1415.02 96.3 1415.02 11 1107.14 11 1107.14 422.77 1415.02 422.77 1415.02 337.47"/>
  <path fill="currentColor" d="M2498.26,427.06c30.59,0,58.83-5.29,84.71-15.88,25.88-10.59,48.43-25.49,67.65-44.71,19.21-19.22,33.92-41.77,44.11-67.65,10.59-26.27,15.89-54.71,15.89-85.29s-5.3-59.41-15.89-85.29c-10.19-25.88-24.9-48.43-44.11-67.65-19.22-19.22-41.77-34.12-67.65-44.71-25.88-10.59-54.32-15.88-85.3-15.88s-59.41,5.29-85.29,15.88c-25.89,10.59-48.43,25.49-67.65,44.71-19.22,19.22-34.12,41.77-44.71,67.65-10.59,25.88-15.88,54.31-15.88,85.29s5.29,59.41,15.88,85.29,25.49,48.43,44.71,67.65,41.76,34.12,67.65,44.71c25.88,10.59,54.51,15.88,85.88,15.88ZM2386.49,213.53c0-17.26,2.55-33.14,7.65-47.65,5.49-14.51,13.34-27.06,23.53-37.65,10.2-10.98,21.96-19.41,35.3-25.29,13.72-5.88,28.62-8.82,44.7-8.82s30.79,2.94,44.12,8.82c13.73,5.88,25.49,14.31,35.3,25.29,10.19,10.59,18.03,23.14,23.52,37.65,5.5,14.51,8.24,30.39,8.24,47.65s-2.74,33.14-8.24,47.65c-5.49,14.51-13.33,27.26-23.52,38.23-9.81,10.59-21.57,18.82-35.3,24.71-13.33,5.88-28.04,8.82-44.12,8.82s-30.98-2.94-44.7-8.82c-13.34-5.88-25.1-14.12-35.3-24.71-10.19-10.59-18.04-23.14-23.53-37.65-5.1-14.9-7.65-30.98-7.65-48.24Z"/>
  <path fill="currentColor" d="M1752.2,408.71c26.67-14.12,47.45-33.33,62.36-57.65,15.29-24.31,22.94-52.16,22.94-83.53V14h-97.65v248.24c0,14.9-3.53,28.43-10.59,40.59-7.06,11.77-16.47,21.18-28.23,28.24-11.38,6.67-24.51,10-39.42,10-14.11,0-26.86-3.33-38.23-10-11.38-7.06-20.39-16.47-27.06-28.24-6.67-12.16-10-25.69-10-40.59V14h-101.18v253.53c0,31.37,7.45,59.22,22.35,83.53,15.3,24.31,36.28,43.53,62.95,57.65,26.66,13.72,57.06,20.59,91.17,20.59s63.93-6.86,90.59-20.59Z"/>
  <path fill="currentColor" d="M1839.38,480c-43.31,0-80.73,8.41-112.26,25.23-31.11,16.82-55.08,41.2-71.89,73.15-16.82,31.53-25.23,69.37-25.23,113.52,0,67.27,17.24,118.77,51.71,154.51,34.48,35.74,83.88,53.6,148.21,53.6,34.47,0,73.36-5.47,116.67-16.4v-122.35h-18.92l-26.49,92.24c-6.89,1.65-13.62,3.07-20.18,4.25-16.4,2.94-31.74,4.42-46.04,4.42-47.93,0-85.35-14.51-112.25-43.52-26.49-29.01-39.74-70.63-39.74-124.87,0-31.11,4-60.12,11.99-87.03,7.32-23.44,17.52-45.75,30.58-66.96,14.91-5.94,29.94-10.54,45.09-13.77,19.77-4.62,39.95-6.94,60.55-6.94,17.66,0,35.1,1.47,52.34,4.42,6.3,1.08,12.6,2.29,18.9,3.65l25.25,89.05h18.92v-121.71c-18.92-5.05-37.63-8.62-56.13-10.72-18.08-2.52-35.11-3.78-51.08-3.78Z"/>
  <path fill="currentColor" d="M2296.2,860.28h-156.4v-343.7c14.29-1.26,27.75-3.15,40.36-5.68,13.03-2.52,25.22-5.47,36.58-8.83v-15.77h-198.03v17.66l73.16,13.87-5.68,346.23c-10.93,1.26-22.07,3.15-33.42,5.68-10.93,2.1-22.29,5.04-34.06,8.83v16.4h318.48v-164.6h-17.66l-23.33,129.91Z"/>
  <path fill="currentColor" d="M2646.11,503.96l71.26,13.87-3.78,295.78c-12.61,17.66-27.75,30.69-45.41,39.1-17.23,7.99-38.89,11.98-64.95,11.98-35.74,0-63.07-7.99-81.99-23.97-18.5-16.4-27.75-39.94-27.75-70.63v-253.52c14.3-1.68,26.7-3.57,37.21-5.68,10.51-2.52,20.18-5.47,29.01-8.83v-15.77h-187.3v17.66l73.15,13.87-4.41,250.37c0,42.88,13.45,75.89,40.36,99.01,26.91,22.7,65.59,34.05,116.04,34.05s89.34-12.19,116.67-36.58c27.75-24.39,41.62-58.86,41.62-103.43l-.63-244.69c13.88-1.26,26.28-3.15,37.21-5.68,11.35-2.52,21.44-5.47,30.27-8.83v-15.77h-176.58v17.66Z"/>
  <path fill="currentColor" d="M3188.41,718.39c-18.92-18.08-45.2-30.27-78.83-36.58,26.91-7.99,48.35-21.02,64.33-39.1,16.39-18.5,24.59-39.31,24.59-62.43,0-28.59-11.35-51.29-34.05-68.11-22.71-17.24-53.4-25.86-92.08-25.86h-218.83v17.66l73.15,13.87-5.68,346.23c-16.39,1.68-30.06,3.78-40.99,6.31-10.51,2.1-19.34,4.83-26.48,8.2v16.4h213.15c46.67,0,83.46-9.88,110.37-29.64,26.91-20.18,40.36-47.51,40.36-81.98,0-25.65-9.67-47.3-29.01-64.96ZM3124.08,539.28c15.14,12.19,22.71,29.01,22.71,50.45,0,35.74-24.18,62.22-72.53,79.46h-99.64v-148.83h87.03c26.49,0,47.3,6.31,62.43,18.92ZM3146.79,833.16c-12.2,13.03-29.22,22.28-51.09,27.75h-121.08v-157.66h88.29c30.69,0,55.29,7.36,73.79,22.07,18.92,14.72,28.38,34.27,28.38,58.65,0,19.34-6.1,35.74-18.29,49.19Z"/>
  <path fill="currentColor" d="M1499.45,541.65c-18.04-18.43-39.61-32.55-64.71-42.35-25.1-10.2-52.74-15.29-82.94-15.29h-172.35v411.77h172.35c30.2,0,57.84-4.9,82.94-14.71,25.1-10.2,46.67-24.31,64.71-42.35,18.43-18.43,32.55-40.2,42.35-65.3,9.81-25.49,14.71-53.33,14.71-83.53s-4.9-57.84-14.71-82.94c-9.8-25.1-23.92-46.86-42.35-65.29ZM1447.68,738.12c-5.09,14.51-12.35,26.86-21.76,37.06-9.02,10.2-20,18.23-32.94,24.12-12.94,5.49-27.65,8.24-44.12,8.24h-69.41v-235.3h69.41c16.47,0,31.18,2.94,44.12,8.82,12.94,5.49,23.92,13.33,32.94,23.53,9.41,10.2,16.67,22.55,21.76,37.06,5.1,14.51,7.65,30.59,7.65,48.24s-2.55,33.73-7.65,48.24Z"/>
  <polygon fill="currentColor" points="418.86 895.77 726.73 895.77 726.73 810.47 515.92 810.47 515.92 726.94 713.23 726.94 713.23 645.77 515.92 645.77 515.92 569.29 726.73 569.29 726.73 484 418.86 484 418.86 895.77"/>
  <polygon fill="currentColor" points="802.86 895.77 1110.73 895.77 1110.73 810.47 899.92 810.47 899.92 726.94 1097.23 726.94 1097.23 645.77 899.92 645.77 899.92 569.29 1110.73 569.29 1110.73 484 802.86 484 802.86 895.77"/>
  <path fill="currentColor" d="M321.8,680.83c-12.55-10.2-27.65-18.82-45.29-25.88-17.26-7.06-36.67-12.74-58.24-17.06-9.41-1.57-18.43-3.53-27.06-5.88-8.63-2.74-16.28-5.88-22.94-9.41-6.67-3.92-11.96-8.24-15.88-12.94s-5.88-10.39-5.88-17.06c0-7.45,2.35-13.73,7.06-18.82,4.71-5.49,11.18-9.61,19.41-12.35,8.63-3.14,18.82-4.71,30.59-4.71s22.35,1.77,32.94,5.29c10.98,3.53,14.73,5.1,24.14,11.77,10.47,8.71,16.8,14.58,23.81,32.15l77.26-48.9c-12-28.98-30.12-43.4-41.68-52.07-13.73-10.59-30.39-18.63-50-24.12-19.22-5.88-42.35-8.82-69.41-8.82-20.39,0-40,3.14-58.82,9.41-18.82,5.88-35.49,14.51-50,25.88-14.12,10.98-25.49,24.31-34.12,40-8.24,15.29-12.35,32.16-12.35,50.59,0,17.26,2.75,32.94,8.24,47.06,5.49,13.73,13.73,26.08,24.71,37.06,11.37,10.59,25.49,19.61,42.35,27.06,16.86,7.45,36.67,13.72,59.41,18.82,8.24,1.57,16.27,3.53,24.12,5.88,7.84,1.96,15.29,4.51,22.35,7.65,7.06,2.74,13.14,5.88,18.24,9.41,5.1,3.53,9.02,7.65,11.77,12.35,3.14,4.71,4.71,10,4.71,15.88,0,7.84-2.35,14.51-7.06,20-4.71,5.1-11.37,9.02-20,11.77-8.63,2.74-18.24,4.12-28.82,4.12-21.18,0-43.18-3.42-63.18-12.45-18.62-8.57-47.88-31.54-70.48-76.67L0,771.2c16.61,42.96,53.86,78.62,69.45,90.22,16.86,12.16,36.08,21.57,57.65,28.24,21.96,6.28,46.47,9.41,73.53,9.41,31.37,0,59.02-5.1,82.94-15.29,24.31-10.59,43.33-25.69,57.06-45.3,14.12-20,21.18-44.31,21.18-72.94,0-18.43-3.53-34.51-10.59-48.24-6.67-14.12-16.47-26.28-29.41-36.47Z"/>
</svg>