<?xml version="1.0" encoding="UTF-8" standalone="no"?>
<svg
   version="1.1"
   width="2048"
   height="2048"
   id="svg2"
   sodipodi:docname="tiq_logo.svg"
   xml:space="preserve"
   inkscape:version="1.3.1 (91b66b0783, 2023-11-16)"
   xmlns:inkscape="http://www.inkscape.org/namespaces/inkscape"
   xmlns:sodipodi="http://sodipodi.sourceforge.net/DTD/sodipodi-0.dtd"
   xmlns="http://www.w3.org/2000/svg"
   xmlns:svg="http://www.w3.org/2000/svg"><defs
     id="defs2" /><sodipodi:namedview
     id="namedview2"
     pagecolor="#5e5e5e"
     bordercolor="#000000"
     borderopacity="0.25"
     inkscape:showpageshadow="2"
     inkscape:pageopacity="0.0"
     inkscape:pagecheckerboard="0"
     inkscape:deskcolor="#d1d1d1"
     showguides="false"
     inkscape:zoom="0.13413622"
     inkscape:cx="495.76467"
     inkscape:cy="600.13618"
     inkscape:window-width="1920"
     inkscape:window-height="991"
     inkscape:window-x="-9"
     inkscape:window-y="-9"
     inkscape:window-maximized="1"
     inkscape:current-layer="svg2" />
     <path
     id="path4"
     style="fill:#ffffff;stroke:none;stroke-width:0;stroke-dasharray:none;fill-opacity:1"
     d="M 1024 0 A 1024 1024 0 0 0 0 1024 A 1024 1024 0 0 0 1024 2048 L 1736 2048 L 1848 2048 C 1958.7998 2048 2048 1958.7998 2048 1848 L 2048 1736 L 2048 1024 A 1024 1024 0 0 0 1024 0 z M 1024.9414 200 A 824 824 0 0 1 1848.9414 1024 A 824 824 0 0 1 1024.9414 1848 A 824 824 0 0 1 200.94141 1024 A 824 824 0 0 1 1024.9414 200 z " />
     <ellipse
     style="fill:#ffffff;stroke-width:0;stroke-dasharray:none;stroke:none;fill-opacity:1"
     id="path3"
     ry="624.62555"
     rx="624.70648"
     cy="1024.2755"
     cx="1024.0269" /></svg>
